<?xml version="1.0" standalone="no"?>
<!DOCTYPE svg PUBLIC "-//W3C//DTD SVG 20010904//EN"
 "http://www.w3.org/TR/2001/REC-SVG-20010904/DTD/svg10.dtd">
<svg version="1.0" xmlns="http://www.w3.org/2000/svg"
 width="500.000000pt" height="500.000000pt" viewBox="0 0 500.000000 500.000000"
 preserveAspectRatio="xMidYMid meet">
<metadata>
Created by potrace 1.11, written by Peter Selinger 2001-2013
</metadata>
<g transform="translate(0.000000,500.000000) scale(0.100000,-0.100000)"
fill="#000000" stroke="none">
<path d="M2361 4555 c-36 -31 -54 -82 -45 -129 l6 -36 -186 0 -186 0 0 -25 0
-24 -423 -3 -424 -3 -41 -29 c-29 -20 -45 -40 -52 -65 -14 -51 -14 -3672 1
-3724 7 -26 23 -47 51 -67 l41 -30 1329 0 c1311 0 1329 0 1368 20 81 41 74
-53 80 1207 l5 1122 48 48 c26 28 47 58 47 70 0 12 -22 46 -50 76 l-49 54 -3
611 c-3 599 -3 611 -24 638 -11 15 -33 37 -48 48 -27 20 -41 21 -462 24 l-434
3 0 24 0 25 -186 0 -186 0 6 36 c15 78 -41 154 -114 154 -27 0 -48 -8 -69 -25z"/>
</g>
</svg>
